<svg width="59" height="60" viewBox="0 0 59 60" fill="none" xmlns="http://www.w3.org/2000/svg">
<path d="M5.71854 53.4328L0.448242 0.607666H58.3793L53.1019 53.4245L29.3786 59.3L5.71854 53.4328Z" fill="#1572B6"/>
<path d="M29.4146 54.8101L48.5857 50.0623L53.0957 4.92792H29.4146V54.8101Z" fill="#33A9DC"/>
<path d="M29.4146 24.0659H39.0118L39.6736 17.4315H29.4146V10.9523H47.6001L47.4265 12.69L45.6455 30.5451H29.4146V24.0659Z" fill="white"/>
<path d="M29.4593 40.8916L29.4265 40.9L21.3498 38.9506L20.8335 33.7836H13.5522L14.5683 43.9562L29.4241 47.6412L29.4593 47.6329V40.8916Z" fill="#EBEBEB"/>
<path d="M38.394 30.2704L37.5211 38.9464L29.4326 40.8958V47.637L44.3002 43.9562L44.4105 42.862L45.6706 30.2704H38.394Z" fill="white"/>
<path d="M29.4406 10.9523V17.4315H11.9215L11.776 15.9747L11.4451 12.69L11.2715 10.9523H29.4406ZM29.4148 24.0659V30.5451H21.439L21.2935 29.0883L20.965 25.8036L20.7913 24.0659H29.4148Z" fill="#EBEBEB"/>
</svg>
