<svg width="20" height="20" viewBox="0 0 20 20" fill="none" xmlns="http://www.w3.org/2000/svg">
<path d="M7.5 15.8333C3.91667 17 3.91667 13.75 2.5 13.3333M12.5 17.5V14.5833C12.5 13.75 12.5833 13.4166 12.0833 12.9166C14.4167 12.6666 16.6667 11.75 16.6667 7.91663C16.6657 6.92076 16.2771 5.96438 15.5833 5.24996C15.9087 4.38493 15.8788 3.42632 15.5 2.58329C15.5 2.58329 14.5833 2.33329 12.5833 3.66663C10.8894 3.22545 9.11063 3.22545 7.41667 3.66663C5.41667 2.33329 4.5 2.58329 4.5 2.58329C4.12123 3.42632 4.09128 4.38493 4.41667 5.24996C3.72288 5.96438 3.33435 6.92076 3.33333 7.91663C3.33333 11.75 5.58333 12.6666 7.91667 12.9166C7.41667 13.4166 7.41667 13.9166 7.5 14.5833V17.5" stroke="#DFDFDF" stroke-width="2.33333" stroke-linecap="round" stroke-linejoin="round"/>
</svg>
