<svg width="52" height="59" viewBox="0 0 52 59" fill="none" xmlns="http://www.w3.org/2000/svg">
<path d="M1.52783 25.2052L16.4323 8.20106L20.7901 13.1937C20.1713 15.6899 21.1769 18.4212 23.1882 19.7428V36.0127C21.6411 37.0112 20.6096 38.9202 20.6096 41.0934C20.6096 42.6512 21.153 44.1452 22.1201 45.2467C23.0873 46.3482 24.3991 46.9671 25.7669 46.9671C27.1347 46.9671 28.4464 46.3482 29.4136 45.2467C30.3808 44.1452 30.9241 42.6512 30.9241 41.0934C30.9241 38.9202 29.8927 37.0112 28.3455 36.0127V21.7398L33.6832 27.8777C33.5027 28.3183 33.5027 28.8175 33.5027 29.3461C33.5027 30.9039 34.0461 32.3979 35.0133 33.4994C35.9804 34.601 37.2922 35.2198 38.66 35.2198C40.0278 35.2198 41.3395 34.601 42.3067 33.4994C43.2739 32.3979 43.8172 30.9039 43.8172 29.3461C43.8172 27.7884 43.2739 26.2944 42.3067 25.1929C41.3395 24.0913 40.0278 23.4725 38.66 23.4725C38.1958 23.4725 37.7575 23.4725 37.3707 23.6781L30.7436 16.1305C31.0638 14.7702 30.9397 13.3239 30.3943 12.06C29.8489 10.7961 28.9193 9.80061 27.7782 9.25831C26.6694 8.78842 25.509 8.67095 24.4776 8.994L20.0939 4.03078L22.131 1.74006C24.1423 -0.580027 27.3914 -0.580027 29.4027 1.74006L50.0059 25.2052C52.043 27.496 52.043 31.1963 50.0059 33.4871L29.4027 56.9522C27.3914 59.2723 24.1423 59.2723 22.131 56.9522L1.52783 33.4871C-0.509278 31.1963 -0.509278 27.496 1.52783 25.2052Z" fill="#F24E1E"/>
</svg>
