<svg width="58" height="59" viewBox="0 0 58 59" fill="none" xmlns="http://www.w3.org/2000/svg">
<path d="M10.6845 49.8903L6.6167 3.66827H51.3141L47.2408 49.883L28.9382 55.024L10.6845 49.8903Z" fill="#E44F26"/>
<path d="M28.9653 51.0953L43.7558 46.941L47.2353 7.44843H28.9653V51.0953Z" fill="#F1662A"/>
<path d="M28.9657 24.5903H21.5614L21.0509 18.7852H28.9657V13.1159H14.9355L15.0695 14.6382L16.4436 30.2596H28.9657V24.5903ZM28.9657 39.3129L28.9404 39.3202L22.7092 37.6163L22.3109 33.0951H16.6934L17.4773 41.9944L28.9404 45.2188L28.9657 45.2114V39.3129Z" fill="#EBEBEB"/>
<path d="M28.9458 24.5903V30.2596H35.836L35.1879 37.6126L28.9458 39.3184V45.2169L40.418 41.9944L40.5012 41.0369L41.8155 26.1126L41.9531 24.5903H28.9458ZM28.9458 13.1159V18.7852H42.4618L42.5741 17.5123L42.8293 14.6382L42.9633 13.1159H28.9458Z" fill="white"/>
</svg>
