<svg width="20" height="20" viewBox="0 0 20 20" fill="none" xmlns="http://www.w3.org/2000/svg">
<path d="M6.49984 1.66675H13.4998C16.1665 1.66675 18.3332 3.83341 18.3332 6.50008V13.5001C18.3332 14.782 17.8239 16.0113 16.9175 16.9178C16.0111 17.8242 14.7817 18.3334 13.4998 18.3334H6.49984C3.83317 18.3334 1.6665 16.1667 1.6665 13.5001V6.50008C1.6665 5.2182 2.17573 3.98882 3.08215 3.0824C3.98858 2.17597 5.21796 1.66675 6.49984 1.66675ZM6.33317 3.33341C5.53752 3.33341 4.77446 3.64949 4.21185 4.21209C3.64924 4.7747 3.33317 5.53777 3.33317 6.33341V13.6667C3.33317 15.3251 4.67484 16.6667 6.33317 16.6667H13.6665C14.4622 16.6667 15.2252 16.3507 15.7878 15.7881C16.3504 15.2255 16.6665 14.4624 16.6665 13.6667V6.33341C16.6665 4.67508 15.3248 3.33341 13.6665 3.33341H6.33317ZM14.3748 4.58341C14.6511 4.58341 14.9161 4.69316 15.1114 4.88851C15.3068 5.08386 15.4165 5.34881 15.4165 5.62508C15.4165 5.90135 15.3068 6.1663 15.1114 6.36165C14.9161 6.557 14.6511 6.66675 14.3748 6.66675C14.0986 6.66675 13.8336 6.557 13.6383 6.36165C13.4429 6.1663 13.3332 5.90135 13.3332 5.62508C13.3332 5.34881 13.4429 5.08386 13.6383 4.88851C13.8336 4.69316 14.0986 4.58341 14.3748 4.58341ZM9.99984 5.83341C11.1049 5.83341 12.1647 6.2724 12.9461 7.0538C13.7275 7.8352 14.1665 8.89501 14.1665 10.0001C14.1665 11.1052 13.7275 12.165 12.9461 12.9464C12.1647 13.7278 11.1049 14.1667 9.99984 14.1667C8.89477 14.1667 7.83496 13.7278 7.05356 12.9464C6.27216 12.165 5.83317 11.1052 5.83317 10.0001C5.83317 8.89501 6.27216 7.8352 7.05356 7.0538C7.83496 6.2724 8.89477 5.83341 9.99984 5.83341ZM9.99984 7.50008C9.3368 7.50008 8.70091 7.76347 8.23207 8.23231C7.76323 8.70115 7.49984 9.33704 7.49984 10.0001C7.49984 10.6631 7.76323 11.299 8.23207 11.7678C8.70091 12.2367 9.3368 12.5001 9.99984 12.5001C10.6629 12.5001 11.2988 12.2367 11.7676 11.7678C12.2364 11.299 12.4998 10.6631 12.4998 10.0001C12.4998 9.33704 12.2364 8.70115 11.7676 8.23231C11.2988 7.76347 10.6629 7.50008 9.99984 7.50008Z" fill="#DFDFDF"/>
</svg>
