<svg width="58" height="54" viewBox="0 0 58 54" fill="none" xmlns="http://www.w3.org/2000/svg">
<g clip-path="url(#clip0_16_172)">
<path d="M43.9688 0H13.4598C6.02617 0 0 5.56953 0 12.4399V40.637C0 47.5074 6.02617 53.0769 13.4598 53.0769H43.9688C51.4024 53.0769 57.4286 47.5074 57.4286 40.637V12.4399C57.4286 5.56953 51.4024 0 43.9688 0Z" fill="#F0DB4F"/>
<path d="M15.1003 44.3549L19.495 41.8968C20.3429 43.2861 21.1142 44.4617 22.9642 44.4617C24.7376 44.4617 25.8556 43.8206 25.8556 41.3268V24.3675H31.2526V41.3973C31.2526 46.5634 27.976 48.915 23.1955 48.915C18.8783 48.915 16.3723 46.8485 15.1001 44.3545M34.1839 43.8204L38.5781 41.4691C39.7349 43.215 41.2384 44.4975 43.8981 44.4975C46.1344 44.4975 47.5603 43.4642 47.5603 42.039C47.5603 40.3289 46.0954 39.7231 43.6282 38.7258L42.2793 38.1911C38.3856 36.6594 35.8027 34.7353 35.8027 30.6737C35.8027 26.9326 38.8867 24.0822 43.7056 24.0822C47.1365 24.0822 49.6037 25.1869 51.3768 28.0727L47.1749 30.5667C46.2495 29.0347 45.2476 28.4291 43.7056 28.4291C42.125 28.4291 41.1226 29.3555 41.1226 30.5667C41.1226 32.063 42.125 32.6689 44.4378 33.5954L45.7869 34.1297C50.3743 35.947 52.9572 37.7993 52.9572 41.9677C52.9572 46.4572 49.1409 48.9154 44.0138 48.9154C39.0025 48.9154 35.7643 46.7065 34.1839 43.8204Z" fill="#323330"/>
</g>
<defs>
<clipPath id="clip0_16_172">
<rect width="57.4286" height="53.0769" fill="white"/>
</clipPath>
</defs>
</svg>
