<svg width="20" height="20" viewBox="0 0 20 20" fill="none" xmlns="http://www.w3.org/2000/svg">
<path d="M15.3665 2.55005H4.63314C4.08108 2.55159 3.55207 2.77158 3.1617 3.16194C2.77133 3.55231 2.55134 4.08132 2.5498 4.63338V15.3667C2.55134 15.9188 2.77133 16.4478 3.1617 16.8382C3.55207 17.2285 4.08108 17.4485 4.63314 17.45H15.3665C15.919 17.45 16.4489 17.2306 16.8396 16.8399C17.2303 16.4492 17.4498 15.9193 17.4498 15.3667V4.63338C17.4498 4.08085 17.2303 3.55094 16.8396 3.16024C16.4489 2.76954 15.919 2.55005 15.3665 2.55005ZM16.6165 15.3667C16.6141 15.6975 16.4816 16.014 16.2477 16.2479C16.0138 16.4818 15.6973 16.6143 15.3665 16.6167H4.63314C4.30236 16.6143 3.98581 16.4818 3.75191 16.2479C3.518 16.014 3.38554 15.6975 3.38314 15.3667V4.63338C3.38554 4.3026 3.518 3.98605 3.75191 3.75215C3.98581 3.51825 4.30236 3.38578 4.63314 3.38338H15.3665C15.6973 3.38578 16.0138 3.51825 16.2477 3.75215C16.4816 3.98605 16.6141 4.3026 16.6165 4.63338V15.3667Z" fill="#DFDFDF"/>
<path d="M5.31348 8.95662C5.31348 8.73561 5.40127 8.52365 5.55755 8.36737C5.71383 8.21109 5.9258 8.12329 6.14681 8.12329C6.36782 8.12329 6.57979 8.21109 6.73607 8.36737C6.89235 8.52365 6.98014 8.73561 6.98014 8.95662V14.3733C6.98014 14.5943 6.89235 14.8063 6.73607 14.9625C6.57979 15.1188 6.36782 15.2066 6.14681 15.2066C5.9258 15.2066 5.71383 15.1188 5.55755 14.9625C5.40127 14.8063 5.31348 14.5943 5.31348 14.3733V8.95662Z" fill="#DFDFDF"/>
<path d="M6.14681 6.45329C6.60705 6.45329 6.98014 6.08019 6.98014 5.61995C6.98014 5.15972 6.60705 4.78662 6.14681 4.78662C5.68657 4.78662 5.31348 5.15972 5.31348 5.61995C5.31348 6.08019 5.68657 6.45329 6.14681 6.45329Z" fill="#DFDFDF"/>
<path d="M14.6832 11.1417V14.375C14.6832 14.5961 14.5954 14.808 14.4391 14.9643C14.2828 15.1206 14.0709 15.2084 13.8499 15.2084C13.6289 15.2084 13.4169 15.1206 13.2606 14.9643C13.1043 14.808 13.0165 14.5961 13.0165 14.375V11.1417C13.0165 10.7848 12.8747 10.4425 12.6224 10.1901C12.37 9.93768 12.0276 9.79588 11.6707 9.79588C11.3138 9.79588 10.9714 9.93768 10.7191 10.1901C10.4667 10.4425 10.3249 10.7848 10.3249 11.1417V14.375C10.3249 14.5961 10.2371 14.808 10.0808 14.9643C9.92451 15.1206 9.71255 15.2084 9.49154 15.2084C9.27052 15.2084 9.05856 15.1206 8.90228 14.9643C8.746 14.808 8.6582 14.5961 8.6582 14.375V8.95838C8.66164 8.73844 8.75054 8.52847 8.90608 8.37293C9.06162 8.21739 9.27159 8.12849 9.49154 8.12505C9.63268 8.12118 9.77225 8.15554 9.89547 8.22449C10.0187 8.29343 10.121 8.3944 10.1915 8.51672C10.6497 8.25675 11.1681 8.12168 11.6949 8.12505C12.2217 8.12842 12.7384 8.27009 13.1932 8.5359C13.648 8.8017 14.0251 9.18231 14.2865 9.63963C14.548 10.0969 14.6848 10.6149 14.6832 11.1417Z" fill="#DFDFDF"/>
</svg>
