<svg width="58" height="58" viewBox="0 0 58 58" fill="none" xmlns="http://www.w3.org/2000/svg">
<g clip-path="url(#clip0_23_151)">
<path d="M44.4062 0H13.5938C6.08613 0 0 6.08613 0 13.5938V44.4062C0 51.9139 6.08613 58 13.5938 58H44.4062C51.9139 58 58 51.9139 58 44.4062V13.5938C58 6.08613 51.9139 0 44.4062 0Z" fill="#242938"/>
<path d="M27.516 6.35595C27.4186 6.36478 27.1084 6.39582 26.8293 6.4178C20.3936 6.99802 14.3652 10.4708 10.5469 15.8081C8.4211 18.7759 7.06105 22.1421 6.54743 25.708C6.36595 26.9527 6.34375 27.3205 6.34375 29.0079C6.34375 30.6956 6.36595 31.0633 6.54766 32.3078C7.7788 40.8166 13.8339 47.9657 22.0459 50.6145C23.5165 51.0884 25.0666 51.4118 26.8295 51.6066C27.5162 51.6818 30.4838 51.6818 31.1705 51.6066C34.2134 51.2699 36.7913 50.5171 39.3337 49.2191C39.7234 49.0199 39.7989 48.9667 39.7456 48.9225C39.7103 48.8958 38.0491 46.6678 36.0561 43.9748L32.4329 39.0804L27.8926 32.361C25.3945 28.6669 23.3393 25.6459 23.3214 25.6459C23.3038 25.6416 23.2861 28.627 23.2773 32.2724C23.2639 38.6551 23.2596 38.9121 23.1798 39.0625C23.0647 39.2796 22.9762 39.3681 22.7899 39.4658C22.6483 39.5365 22.5242 39.5498 21.8554 39.5498H21.0891L20.8852 39.4214C20.759 39.3423 20.6564 39.2306 20.5884 39.0981L20.4955 38.8987L20.5046 30.0179L20.5177 21.1326L20.655 20.9597C20.7259 20.8668 20.8766 20.7472 20.9829 20.6896C21.1643 20.6011 21.2353 20.5922 22.0015 20.5922C22.9052 20.5922 23.0557 20.6276 23.2906 20.8845C23.357 20.9554 25.8152 24.6583 28.7564 29.1187C31.7341 33.6334 34.7135 38.1469 37.6948 42.6592L41.2826 48.0942L41.4643 47.9746C43.072 46.9292 44.7731 45.4409 46.1195 43.8906C48.9853 40.5995 50.8325 36.5866 51.4526 32.3078C51.634 31.0633 51.6562 30.6956 51.6562 29.0079C51.6562 27.3205 51.634 26.9527 51.4526 25.708C50.2212 17.1992 44.1661 10.0503 35.9541 7.40153C34.5057 6.93187 32.9644 6.60856 31.2369 6.41372C30.8116 6.36931 27.8837 6.32083 27.5162 6.35617L27.516 6.35595ZM36.791 20.0605C37.0035 20.1667 37.1764 20.3704 37.2385 20.5829C37.2738 20.6983 37.2827 23.161 37.2738 28.7109L37.2605 36.675L35.8565 34.5222L34.4479 32.3696V26.5805C34.4479 22.8377 34.4656 20.7336 34.4921 20.6316C34.563 20.3838 34.718 20.1889 34.9307 20.0736C35.1122 19.9807 35.1788 19.9717 35.8741 19.9717C36.5298 19.9717 36.6449 19.9807 36.791 20.0605Z" fill="white"/>
</g>
<defs>
<clipPath id="clip0_23_151">
<rect width="58" height="58" fill="white"/>
</clipPath>
</defs>
</svg>
