<svg width="67" height="67" viewBox="0 0 67 67" fill="none" xmlns="http://www.w3.org/2000/svg">
<path fill-rule="evenodd" clip-rule="evenodd" d="M58.3047 2.23717C60.9974 3.66662 63.1982 5.87259 64.6213 8.56867C66.0786 11.2989 66.8546 14.0067 66.8546 21.4714V34.5833C66.8544 34.666 66.8298 34.7468 66.7838 34.8155C66.7377 34.8843 66.6724 34.9378 66.596 34.9695C66.5195 35.0011 66.4354 35.0094 66.3543 34.9933C66.2732 34.9772 66.1986 34.9374 66.1401 34.879V34.8772L61.1988 29.9268C60.8064 29.5336 60.5861 29.0008 60.5864 28.4454V22.3851C60.5864 16.7851 60.0038 14.7547 58.9114 12.7075C57.8436 10.6857 56.1927 9.0316 54.173 7.95991C52.1528 6.87509 50.1472 6.29329 44.6927 6.28125H36.5242C36.4416 6.2808 36.361 6.25594 36.2925 6.2098C36.2241 6.16366 36.1707 6.0983 36.1393 6.02193C36.1078 5.94557 36.0997 5.86161 36.1158 5.78062C36.132 5.69963 36.1717 5.62522 36.2301 5.56676L41.1713 0.614254C41.365 0.41964 41.5953 0.265197 41.8489 0.159788C42.1025 0.0543789 42.3744 7.76671e-05 42.649 0L45.4276 0C52.8777 0 55.58 0.777828 58.3047 2.23717ZM48.0519 10.4688C52.6673 10.4688 56.4083 14.2189 56.4083 18.8438V24.1462C56.4079 24.228 56.3836 24.3078 56.3384 24.376C56.2932 24.4441 56.229 24.4975 56.1537 24.5296C56.0785 24.5616 55.9955 24.571 55.9151 24.5564C55.8346 24.5418 55.7601 24.5041 55.7009 24.4477L48.9637 17.9932C48.533 17.5611 48.0126 17.2288 47.4395 17.0198C46.9674 16.841 46.4666 16.7496 45.9618 16.75H26.0738C25.9911 16.7499 25.9103 16.7252 25.8415 16.6792C25.7728 16.6332 25.7192 16.5678 25.6876 16.4914C25.656 16.415 25.6477 16.3309 25.6638 16.2498C25.6799 16.1686 25.7196 16.0941 25.7781 16.0355L30.7266 11.0812C30.9204 10.8872 31.1505 10.7332 31.4038 10.6281C31.657 10.5231 31.9285 10.4689 32.2027 10.4688H48.0519Z" fill="#E55638"/>
<path fill-rule="evenodd" clip-rule="evenodd" d="M61.2993 36.3103L66.2424 41.2626C66.634 41.6562 66.8541 42.1887 66.8548 42.7439V45.5301C66.8548 52.9951 66.0786 55.7032 64.6213 58.4334C63.1982 61.1295 60.9974 63.3354 58.3047 64.7649C55.5802 66.2222 52.8777 67 45.4276 67H32.3459C32.2633 66.9995 32.1828 66.9746 32.1143 66.9284C32.0459 66.8823 31.9926 66.8169 31.9612 66.7405C31.9298 66.6642 31.9216 66.5802 31.9378 66.4993C31.9539 66.4183 31.9937 66.3439 32.052 66.2855V66.2871L36.9932 61.3348C37.187 61.1402 37.4172 60.9858 37.6708 60.8803C37.9244 60.7749 38.1963 60.7206 38.4709 60.7206H44.5177C50.1046 60.7206 52.1295 60.138 54.173 59.0419C56.1927 57.9702 57.8436 56.3161 58.9114 54.2943C60.0038 52.2469 60.5864 50.2165 60.5864 44.6165V36.6061C60.5868 36.5237 60.6116 36.4432 60.6575 36.3748C60.7035 36.3064 60.7686 36.2531 60.8447 36.2215C60.9208 36.19 61.0045 36.1815 61.0854 36.1973C61.1663 36.2131 61.2407 36.2524 61.2993 36.3103ZM50.8544 25.8395L55.7975 30.7975C56.1889 31.1911 56.4084 31.7237 56.4081 32.2788V48.1615C56.4081 52.7863 52.667 56.5365 48.0514 56.5365H42.7605C42.6787 56.5361 42.5989 56.5117 42.5308 56.4665C42.4628 56.4213 42.4094 56.3571 42.3774 56.2819C42.3453 56.2068 42.336 56.1239 42.3505 56.0434C42.365 55.963 42.4027 55.8886 42.459 55.8293V55.8275L48.8983 49.0736C49.3309 48.6425 49.6633 48.1215 49.8719 47.5475C50.0497 47.0744 50.1404 46.5731 50.1396 46.0677V26.1352C50.1397 26.0524 50.1643 25.9716 50.2104 25.9028C50.2564 25.834 50.3218 25.7804 50.3983 25.7487C50.4748 25.7171 50.5589 25.7088 50.6401 25.725C50.7213 25.7411 50.7958 25.781 50.8544 25.8395Z" fill="#F4C942"/>
<path fill-rule="evenodd" clip-rule="evenodd" d="M0.712922 32.1207L5.65784 37.0732C6.04942 37.4669 6.26955 37.9993 6.27026 38.5546V44.6147C6.27026 50.2147 6.85075 52.2451 7.94526 54.2922C9.01249 56.3137 10.6626 57.9678 12.6816 59.0398C14.7251 60.1364 16.7518 60.7187 22.339 60.7187H30.3306C30.4135 60.7185 30.4946 60.7428 30.5636 60.7887C30.6327 60.8345 30.6866 60.8999 30.7185 60.9764C30.7504 61.0529 30.7588 61.1371 30.7428 61.2185C30.7268 61.2998 30.687 61.3746 30.6284 61.4332L25.6832 66.3857C25.4898 66.5802 25.2598 66.7345 25.0065 66.8399C24.7533 66.9453 24.4817 66.9997 24.2074 67H21.4269C13.9768 67 11.2764 66.2222 8.55192 64.7628C5.85843 63.3337 3.6569 61.1277 2.23325 58.4313C0.790652 55.7286 0.0157031 53.0478 0.000261719 45.7511L0 32.4165C0.000446529 32.3341 0.0251914 32.2537 0.0711361 32.1853C0.117081 32.1169 0.182183 32.0635 0.258291 32.032C0.334399 32.0004 0.418131 31.992 0.499 32.0078C0.579869 32.0236 0.654283 32.0629 0.712922 32.1207ZM11.1537 42.5523H11.1518L17.8927 49.0068C18.3227 49.4388 18.8425 49.7711 19.4151 49.9802C19.8871 50.1596 20.388 50.2511 20.893 50.25H40.781C40.8636 50.2505 40.9441 50.2754 41.0126 50.3216C41.081 50.3677 41.1343 50.4331 41.1657 50.5094C41.1971 50.5858 41.2053 50.6697 41.1891 50.7507C41.173 50.8317 41.1332 50.906 41.0749 50.9645L36.1282 55.9188C35.7366 56.3103 35.2058 56.5306 34.6521 56.5312H18.8032C17.7046 56.5301 16.6169 56.3125 15.6024 55.891C14.5878 55.4695 13.6662 54.8522 12.8902 54.0746C12.1143 53.2969 11.499 52.3739 11.0797 51.3585C10.6604 50.343 10.4453 49.2549 10.4465 48.1562V42.8538C10.4469 42.772 10.4712 42.6922 10.5164 42.624C10.5616 42.5559 10.6258 42.5025 10.7011 42.4704C10.7763 42.4384 10.8593 42.429 10.9398 42.4436C11.0202 42.4581 11.0944 42.4959 11.1537 42.5523Z" fill="#7B8FEA"/>
<path fill-rule="evenodd" clip-rule="evenodd" d="M24.0938 10.4688C24.1756 10.4692 24.2554 10.4935 24.3235 10.5387C24.3915 10.5839 24.4449 10.6481 24.4769 10.7233C24.509 10.7984 24.5183 10.8814 24.5038 10.9618C24.4893 11.0422 24.4516 11.1167 24.3953 11.1759L17.9542 17.9319C17.5222 18.363 17.1905 18.884 16.9827 19.4577C16.8041 19.9307 16.7127 20.432 16.7128 20.9375V40.87C16.7121 40.9523 16.6871 41.0325 16.6411 41.1006C16.595 41.1688 16.5299 41.2219 16.4538 41.2533C16.3778 41.2846 16.2942 41.2929 16.2135 41.2771C16.1327 41.2612 16.0585 41.222 15.9999 41.1642L11.0568 36.2062C10.6656 35.8131 10.4461 35.281 10.4465 34.7264V18.8438C10.4465 14.2189 14.1873 10.4688 18.8029 10.4688H24.0938ZM34.5087 0C34.5912 0.000449896 34.6719 0.0253086 34.7403 0.0714497C34.8088 0.117591 34.8622 0.182954 34.8936 0.259319C34.925 0.335684 34.9332 0.419641 34.917 0.500631C34.9009 0.58162 34.8612 0.656027 34.8028 0.714492L29.8616 5.667C29.6677 5.86146 29.4374 6.0158 29.1839 6.1212C28.9303 6.2266 28.6585 6.28099 28.3839 6.28125H22.3372C16.75 6.28125 14.7233 6.86384 12.6798 7.95991C10.66 9.0316 9.00912 10.6857 7.94133 12.7075C6.86043 14.7332 6.27863 16.7427 6.26633 22.2097V30.3958C6.26584 30.4781 6.24107 30.5585 6.19514 30.6268C6.14921 30.6952 6.08415 30.7484 6.00809 30.78C5.93204 30.8116 5.84836 30.82 5.76754 30.8043C5.68671 30.7885 5.61232 30.7493 5.55367 30.6915L0.614254 25.7393C0.419597 25.5448 0.265161 25.3139 0.159765 25.0597C0.0543701 24.8055 8.12827e-05 24.5331 0 24.2579L0 21.4714C0 14.0067 0.775996 11.2984 2.23325 8.56867C3.65634 5.87259 5.85712 3.66662 8.54983 2.23717C11.2474 0.792484 13.9229 0.0157031 21.2031 0H34.5087Z" fill="#D97EE8"/>
</svg>
