<svg width="60" height="48" viewBox="0 0 60 48" fill="none" xmlns="http://www.w3.org/2000/svg">
<path d="M48.9243 15.4747C48.291 15.2788 47.6524 15.0973 47.009 14.9304C47.117 14.5321 47.2165 14.1386 47.3049 13.7521C48.7548 7.40468 47.8069 2.29108 44.5693 0.607433C41.4651 -1.00662 36.3884 0.676397 31.2613 4.70042C30.756 5.09771 30.2619 5.50645 29.7795 5.92626C29.4566 5.6471 29.1279 5.37336 28.7937 5.10519C23.4202 0.802587 18.0342 -1.01081 14.8 0.677655C11.6986 2.29674 10.7802 7.10388 12.0856 13.1195C12.2155 13.7153 12.3621 14.308 12.5254 14.897C11.763 15.0924 11.0273 15.3003 10.3233 15.5217C4.02327 17.5026 0 20.6068 0 23.8267C0 27.1523 4.31916 30.4879 10.8809 32.5105C11.4129 32.6738 11.9493 32.8251 12.4896 32.9643C12.3141 33.5988 12.1583 34.2375 12.0224 34.8798C10.7779 40.791 11.7497 45.4845 14.8428 47.0934C18.0374 48.7548 23.3993 47.0472 28.6201 42.9314C29.0434 42.5968 29.4575 42.2527 29.8618 41.8995C30.3842 42.354 30.9206 42.7954 31.4702 43.223C36.5276 47.1474 41.5223 48.7321 44.6123 47.1189C47.8039 45.4527 48.8413 40.4106 47.4945 34.2761C47.3884 33.7955 47.2695 33.3173 47.1377 32.8419C47.5143 32.7413 47.8839 32.6378 48.2441 32.53C55.0657 30.4919 59.5041 27.1967 59.5041 23.8267C59.5041 20.595 55.3509 17.4699 48.9243 15.4747ZM47.4448 30.3542C47.1194 30.4512 46.7856 30.5449 46.4453 30.6361C45.6922 28.4861 44.676 26.2 43.4322 23.8378C44.619 21.532 45.5962 19.2751 46.3282 17.1391C46.9369 17.298 47.5275 17.4655 48.097 17.6422C53.6035 19.3518 56.9622 21.8792 56.9622 23.8267C56.9622 25.9011 53.3348 28.594 47.4448 30.3542ZM45.0009 34.7213C45.5964 37.4338 45.6813 39.8863 45.2868 41.8037C44.9326 43.5265 44.2199 44.675 43.3385 45.1351C41.4635 46.114 37.4532 44.8417 33.1282 41.4853C32.6169 41.0877 32.118 40.6774 31.632 40.2548C33.3088 38.6011 34.9845 36.6787 36.6199 34.5436C39.4966 34.3134 42.2142 33.937 44.6788 33.4232C44.7975 33.8536 44.9049 34.2864 45.0009 34.7213ZM20.2863 44.966C18.4542 45.5493 16.9949 45.5661 16.1128 45.1074C14.2359 44.1313 13.4556 40.3626 14.5199 35.3074C14.6465 34.7101 14.7913 34.116 14.9544 33.5259C17.3917 34.0122 20.0896 34.3619 22.973 34.5727C24.6196 36.662 26.3436 38.5823 28.0811 40.2638C27.7118 40.586 27.3338 40.9 26.9475 41.2054C24.6387 43.0253 22.3252 44.3166 20.2863 44.966ZM11.7033 30.3414C8.80173 29.447 6.40553 28.2846 4.76312 27.0162C3.28714 25.8766 2.54217 24.7448 2.54217 23.8267C2.54217 21.8727 5.77237 19.3803 11.16 17.6864C11.8139 17.481 12.4982 17.2871 13.2083 17.1051C13.953 19.2893 14.9297 21.5731 16.1084 23.8825C14.9144 26.226 13.9237 28.5462 13.1718 30.7562C12.6786 30.6288 12.1889 30.4905 11.7033 30.3414ZM14.5804 12.6791C13.4621 7.52521 14.2048 3.63745 16.0738 2.66168C18.0644 1.6224 22.4663 3.10418 27.106 6.81943C27.4085 7.06225 27.7062 7.30999 27.9988 7.56253C26.2699 9.23674 24.5617 11.1428 22.9298 13.2197C20.1312 13.4536 17.4524 13.8292 14.9895 14.3325C14.8377 13.7846 14.7013 13.2332 14.5804 12.6791ZM40.2478 18.3949C39.6661 17.4887 39.0628 16.5939 38.4383 15.7112C40.3368 15.9277 42.1559 16.2151 43.8641 16.5664C43.3513 18.0488 42.7121 19.5985 41.9597 21.1874C41.4097 20.2464 40.839 19.3154 40.2478 18.3949ZM29.7807 9.20089C30.9531 10.3464 32.1273 11.6253 33.2823 13.013C30.9394 12.9132 28.5925 12.9128 26.2495 13.0117C27.4056 11.6369 28.5899 10.3597 29.7807 9.20089ZM19.2463 18.4106C18.6625 19.3237 18.1024 20.2489 17.5665 21.1855C16.8264 19.6023 16.193 18.0455 15.6759 16.5421C17.3736 16.1996 19.184 15.9195 21.0705 15.707C20.4391 16.5951 19.8308 17.4967 19.2463 18.4106ZM21.1247 32.1095C19.1757 31.9133 17.338 31.6477 15.6408 31.3144C16.1661 29.7842 16.8134 28.1943 17.5695 26.5771C18.1076 27.5144 18.67 28.4402 19.2563 29.3537C19.8593 30.2928 20.4836 31.2126 21.1247 32.1095ZM29.8509 38.6139C28.6459 37.4418 27.4442 36.1449 26.2706 34.7501C27.41 34.7903 28.5715 34.8109 29.7521 34.8109C30.9649 34.8109 32.1638 34.7863 33.3439 34.739C32.1852 36.1589 31.0154 37.4577 29.8509 38.6139ZM41.9837 26.4945C42.7791 28.1295 43.4494 29.7111 43.9817 31.2151C42.2565 31.5702 40.3938 31.8561 38.4311 32.0684C39.06 31.1693 39.669 30.259 40.2578 29.338C40.8564 28.4018 41.4318 27.4538 41.9837 26.4945ZM38.0559 28.1926C37.1546 29.6047 36.2025 30.9899 35.2013 32.3462C33.3878 32.462 31.5702 32.5196 29.7521 32.5187C27.9002 32.5187 26.0991 32.4667 24.3646 32.3652C23.3373 31.0121 22.3671 29.6245 21.4561 28.2052C20.5494 26.7934 19.7027 25.3511 18.9174 23.8814C19.7007 22.4114 20.5451 20.9684 21.4487 19.5556C22.3519 18.1424 23.3141 16.7608 24.3337 15.4135C26.1033 15.2928 27.9179 15.2299 29.7518 15.2299C31.5941 15.2299 33.4113 15.2934 35.1804 15.415C36.1897 16.7603 37.146 18.1373 38.0475 19.5434C38.9542 20.9531 39.8097 22.389 40.6127 23.8489C39.8179 25.3237 38.9651 26.7726 38.0559 28.1926ZM43.2997 2.59334C45.2922 3.62969 46.0671 7.80883 44.8152 13.2893C44.7353 13.6389 44.6455 13.995 44.5479 14.3562C42.079 13.8422 39.3982 13.4601 36.5916 13.2226C34.9566 11.1229 33.2623 9.21389 31.5616 7.56127C32.0073 7.17379 32.4637 6.79637 32.9302 6.42934C37.3233 2.98177 41.4291 1.62051 43.2997 2.59334ZM29.7521 19.0349C32.6866 19.0349 35.0656 21.1803 35.0656 23.8267C35.0656 26.4731 32.6866 28.6186 29.7521 28.6186C26.8175 28.6186 24.4385 26.4731 24.4385 23.8267C24.4385 21.1803 26.8175 19.0349 29.7521 19.0349Z" fill="#00D8FF"/>
</svg>
