<svg width="58" height="59" viewBox="0 0 58 59" fill="none" xmlns="http://www.w3.org/2000/svg">
<path d="M49.8775 33.7686C48.0584 33.7718 46.2637 34.3343 44.629 35.4135C44.1172 34.265 43.722 33.0286 43.454 31.7376C43.3 30.7256 43.2644 29.6872 43.3485 28.6603C43.5253 27.5303 43.7547 26.4165 44.0353 25.3256C44.025 25.1829 43.9091 24.5087 42.7444 24.4863C41.5797 24.464 40.5764 24.7857 40.4688 25.2025C40.2665 25.9639 40.104 26.7435 39.9826 27.5357C39.0187 30.7515 37.8321 33.8369 36.4388 36.7507C35.6582 35.0202 35.3372 32.9815 35.5286 30.971C35.7054 29.841 35.9348 28.7273 36.2154 27.6364C36.2051 27.4937 36.0892 26.8195 34.9245 26.7971C33.7598 26.7747 32.7565 27.0964 32.6489 27.5133C32.5413 27.9301 32.4048 28.912 32.1627 29.8464C31.9207 30.7808 29.0948 39.3189 28.3542 41.5205C27.9735 42.6396 27.6446 43.5515 27.4129 44.167C27.4019 44.207 27.388 44.2454 27.3715 44.2817L27.055 45.0986V45.1126C26.8957 45.4986 26.726 45.8567 26.6412 45.8567C26.4933 45.0575 26.5004 44.2201 26.6619 43.4257C27.0757 40.4631 28.0894 35.8583 28.079 35.6989C28.079 35.6121 28.2693 34.812 27.4232 34.398C27.227 34.2717 27.0066 34.2308 26.7925 34.2809C26.5783 34.331 26.3809 34.4697 26.2275 34.6778C26.153 34.6778 26.1013 34.9211 26.1013 34.9211C26.1013 34.9211 27.0219 29.7429 24.3449 29.7429C23.3024 30.0265 22.3124 30.5891 21.4331 31.3976C20.5538 32.2062 19.803 33.2444 19.2247 34.4512C18.5048 34.9799 16.9719 36.1101 15.3313 37.327C14.7107 37.7998 14.0611 38.2726 13.4591 38.7258C13.4177 38.6698 13.3743 38.5971 13.3329 38.5412C10.0746 33.8469 4.0856 30.5346 4.34419 24.2541C4.43935 21.9658 5.02067 15.9566 15.8444 8.65788C24.7525 2.72151 31.8421 4.36646 33.0688 8.01445C34.8252 13.2235 29.2706 22.8945 20.0667 24.2961C19.0485 24.5755 17.9969 24.5417 16.9896 24.1975C15.9823 23.8532 15.0451 23.2071 14.2473 22.3071C13.7612 21.5909 13.6867 21.5489 13.5067 21.6916C13.2109 21.907 13.4012 22.5504 13.5067 22.9225C13.8578 23.7818 14.3327 24.5372 14.9034 25.144C15.474 25.7509 16.1288 26.1969 16.8291 26.4558C20.4499 27.5139 24.225 27.008 27.6218 25.0095C33.2075 22.0916 37.5518 13.9788 36.2775 7.18358C34.9969 0.287652 26.5336 -1.98675 18.5234 1.86826C13.5062 4.15126 8.87027 7.74729 4.88 12.4513C0.467346 18.0324 -0.229825 22.8806 0.055663 24.9144C1.09004 32.1264 8.43619 36.8179 11.3759 40.3008C11.2431 40.4029 11.1093 40.5027 10.9745 40.6001C9.50366 41.5877 3.89734 45.5518 2.49266 49.7425C0.905921 54.4983 2.74711 57.8973 3.96354 58.3561C5.79647 58.9494 7.72066 58.754 9.46748 57.7971C11.2143 56.8402 12.6966 55.1695 13.7074 53.0184C14.5681 51.2342 15.0972 49.1951 15.2495 47.0747C15.4019 44.9544 15.173 42.8157 14.5825 40.8407C14.5725 40.8088 14.5585 40.7795 14.5411 40.754L15.6934 39.8392C16.3935 39.2795 17.1026 38.7404 17.8201 38.2222C17.3894 39.902 17.1366 41.6557 17.0691 43.4313C16.9229 46.1526 17.5387 48.8488 18.7944 50.9846C18.9855 51.207 19.2073 51.3759 19.447 51.4816C19.6867 51.5872 19.9396 51.6275 20.1908 51.6001C21.4321 51.6001 22.001 50.2013 22.6237 48.5396C23.385 46.5085 24.0718 44.1474 24.0718 44.1474C24.0718 44.1474 23.2154 50.5286 25.5427 50.5286C26.3888 50.5286 27.2453 49.0403 27.628 48.2906V48.3046L27.6922 48.1619L27.8287 47.8626V47.8346C28.168 47.0345 28.9293 45.2161 30.0609 42.1975C31.5214 38.3062 32.9282 33.4413 32.9282 33.4413C33.0639 34.5104 33.2511 35.5664 33.4888 36.6025C33.8295 37.8584 34.2325 39.0818 34.6949 40.2644C34.3556 40.9079 34.1446 41.266 34.1446 41.266L34.1549 41.2799C33.8798 41.7667 33.584 42.2955 33.255 42.8102C32.2764 44.2652 31.3684 45.8042 30.5367 47.4177C30.4131 47.6888 30.3706 48.0133 30.4179 48.3252C30.4652 48.6371 30.5987 48.9129 30.7911 49.0963C31.2266 49.4027 31.723 49.5134 32.2082 49.4124C32.9394 49.3566 33.6584 49.1343 34.3349 48.755C34.9887 48.4439 35.6054 48.0056 36.1658 47.4541C36.7434 46.9129 37.2084 46.1799 37.516 45.3254C37.8236 44.471 37.9635 43.5239 37.9221 42.5752C37.8571 41.3802 37.6313 40.2113 37.256 39.1258C37.3615 38.9244 37.4629 38.7258 37.5622 38.5244C38.7383 36.1503 39.7984 33.6748 40.7356 31.1137C40.8713 32.1828 41.0586 33.2388 41.2963 34.2749C41.5773 35.3602 41.9232 36.4128 42.3307 37.4221C40.9776 38.8299 39.9118 40.6803 39.2337 42.799C38.5676 45.4035 39.0848 46.5757 40.0612 46.847C40.5955 46.8969 41.1298 46.7489 41.6066 46.419C42.3076 46.1075 42.9681 45.6486 43.5636 45.0594C44.1916 44.5582 44.7176 43.8538 45.0942 43.0095C45.4709 42.1651 45.6864 41.2074 45.7213 40.2225C45.6744 39.2393 45.5102 38.2729 45.2352 37.3606C47.0207 36.4173 48.9567 36.1166 50.8539 36.4878C55.8893 37.2879 56.8843 41.5373 56.694 43.3277C56.6048 43.9625 56.416 44.564 56.1406 45.0919C55.8651 45.6198 55.5092 46.0618 55.0969 46.3882C54.7473 46.6876 54.6315 46.7883 54.6625 47.0037C54.7039 47.3198 54.8694 47.303 55.1693 47.2471C55.9282 46.9281 56.5978 46.3056 57.0898 45.4615C57.5817 44.6175 57.8729 43.5916 57.9249 42.5193C58.0842 38.323 55.1218 33.721 49.8837 33.763L49.8775 33.7686ZM11.0263 51.4714C9.35471 53.9332 7.02736 54.862 6.02195 54.0759C4.94206 53.2366 5.36616 49.5998 7.41836 46.9925C8.63572 45.5106 9.95149 44.1837 11.349 43.0284C11.5931 42.827 11.9531 42.5416 12.3834 42.1891L12.4992 42.1024L12.7537 41.887C13.1203 43.5482 13.1536 45.3113 12.85 46.9956C12.5464 48.6799 11.917 50.2246 11.0263 51.4714ZM23.1926 40.2812C22.6113 42.1975 21.3949 47.1072 20.6542 46.8331C20.0191 46.6037 19.6199 42.8829 20.5281 39.207C20.9866 37.4374 21.6545 35.7802 22.5058 34.3001C23.416 32.9265 24.4214 32.4677 24.6635 33.0272C24.4427 35.5307 23.9469 37.9756 23.1926 40.2812ZM33.2323 46.7771C32.9882 46.9478 32.7565 47.0569 32.651 46.9785C32.5765 46.9226 32.7565 46.6988 32.7565 46.6988C32.7565 46.6988 34.0163 44.8664 34.5128 44.0383C34.7983 43.5515 35.1335 42.9809 35.4976 42.3346V42.5193C35.4976 44.7069 33.9315 46.1812 33.2343 46.7827L33.2323 46.7771ZM40.9777 44.388C40.7977 44.2174 40.8287 43.6439 41.4328 41.8562C41.8528 40.7082 42.4396 39.6863 43.1582 38.8517C43.2683 39.2752 43.3256 39.7204 43.3278 40.1693C43.3359 41.1248 43.11 42.057 42.6853 42.8207C42.2605 43.5843 41.6609 44.1364 40.9798 44.3908L40.9777 44.388Z" fill="#CD6799"/>
</svg>
