<svg width="77" height="77" viewBox="0 0 77 77" fill="none" xmlns="http://www.w3.org/2000/svg">
<path d="M21.8438 32.475C24.0896 23.4917 29.7042 19 38.6875 19C52.1625 19 53.8469 29.1062 60.5844 30.7906C65.076 31.9135 69.0063 30.2292 72.375 25.7375C70.1292 34.7208 64.5146 39.2125 55.5312 39.2125C42.0563 39.2125 40.3719 29.1062 33.6344 27.4219C29.1427 26.299 25.2125 27.9833 21.8438 32.475ZM5 52.6875C7.24583 43.7042 12.8604 39.2125 21.8438 39.2125C35.3187 39.2125 37.0031 49.3187 43.7406 51.0031C48.2323 52.126 52.1625 50.4417 55.5312 45.95C53.2854 54.9333 47.6708 59.425 38.6875 59.425C25.2125 59.425 23.5281 49.3187 16.7906 47.6344C12.299 46.5115 8.36875 48.1958 5 52.6875Z" fill="#44A8B3"/>
</svg>
