<svg width="58" height="58" viewBox="0 0 58 58" fill="none" xmlns="http://www.w3.org/2000/svg">
<g clip-path="url(#clip0_16_110)">
<path d="M44.4062 0H13.5938C6.08613 0 0 6.08613 0 13.5938V44.4062C0 51.9139 6.08613 58 13.5938 58H44.4062C51.9139 58 58 51.9139 58 44.4062V13.5938C58 6.08613 51.9139 0 44.4062 0Z" fill="#007ACC"/>
<path d="M12.826 29.1924L12.8076 31.5676H20.3567V53.0183H25.6968V31.5676H33.2458V29.2383C33.2458 27.9494 33.2184 26.8724 33.1815 26.8447C33.1538 26.808 28.5598 26.7894 22.99 26.7987L12.8538 26.8264L12.826 29.1924ZM46.8004 26.7588C48.2733 27.1272 49.3966 27.7809 50.4276 28.8487C50.9616 29.4196 51.7533 30.46 51.8178 30.7085C51.8362 30.7821 49.3136 32.4761 47.7855 33.4243C47.7302 33.4612 47.5091 33.2218 47.2605 32.8536C46.5149 31.7672 45.7324 31.2976 44.5354 31.2149C42.7771 31.095 41.6447 32.0158 41.654 33.5532C41.654 34.0043 41.7184 34.2712 41.9025 34.6396C42.2891 35.4405 43.0073 35.9192 45.2629 36.895C49.4149 38.6812 51.1916 39.8596 52.2966 41.535C53.5302 43.4039 53.8064 46.3869 52.9685 48.6056C52.048 51.0176 49.7647 52.6563 46.5516 53.1996C45.5575 53.3745 43.2005 53.3469 42.1327 53.1536C39.8034 52.7392 37.594 51.5885 36.2315 50.0787C35.6975 49.4894 34.6571 47.952 34.7216 47.8414C34.7491 47.8047 34.9885 47.6574 35.2554 47.5009C35.5133 47.3536 36.4893 46.792 37.4098 46.2579L39.0762 45.2912L39.426 45.8069C39.914 46.5525 40.9818 47.5745 41.6264 47.915C43.4767 48.8911 46.0178 48.7529 47.2698 47.6298C47.8038 47.1418 48.0247 46.6354 48.0247 45.8898C48.0247 45.2176 47.9418 44.923 47.592 44.4167C47.1409 43.7723 46.2204 43.229 43.6056 42.0967C40.6136 40.8078 39.3247 40.0069 38.1464 38.7363C37.4651 38 36.8205 36.8214 36.5536 35.8363C36.3327 35.017 36.2775 32.9639 36.4524 32.1354C37.0691 29.2447 39.2511 27.2285 42.3996 26.6299C43.4216 26.4367 45.7967 26.5103 46.8004 26.7588Z" fill="white"/>
</g>
<defs>
<clipPath id="clip0_16_110">
<rect width="58" height="58" fill="white"/>
</clipPath>
</defs>
</svg>
